<?xml version="1.0" standalone="no" ?>
<!DOCTYPE svg PUBLIC "-//W3C//DTD SVG 20010904//EN"
  "http://www.w3.org/TR/2001/REC-SVG-20010904/DTD/svg10.dtd">
<svg
  version="1.0"
  xmlns="http://www.w3.org/2000/svg"
  width="800px"
  height="600px"
  viewBox="0 0 393.000000 163.000000"
  preserveAspectRatio="xMidYMid meet"
>
<metadata>
Created by potrace 1.16, written by Peter Selinger 2001-2019
</metadata>
<g
    transform="translate(0.000000,163.000000) scale(0.100000,-0.100000)"
    fill="#ffff"
    stroke="none"
  >
<path
      d="M739 1419 c-46 -57 -91 -112 -99 -123 -13 -19 52 32 143 112 34 30
41 32 55 19 91 -77 194 -157 181 -141 -8 10 -53 64 -99 119 -46 55 -87 104
-90 108 -4 4 -45 -38 -91 -94z"
    />
<path
      d="M100 785 c0 -477 3 -725 10 -725 7 0 10 248 10 725 0 477 -3 725 -10
725 -7 0 -10 -248 -10 -725z"
    />
<path
      d="M140 785 c0 -638 2 -725 15 -725 13 0 15 87 15 725 0 638 -2 725 -15
725 -13 0 -15 -87 -15 -725z"
    />
<path
      d="M210 785 c0 -638 2 -725 15 -725 13 0 15 87 15 725 0 638 -2 725 -15
725 -13 0 -15 -87 -15 -725z"
    />
<path
      d="M270 785 l0 -725 25 0 25 0 0 706 c0 467 -3 712 -10 725 -6 10 -17
19 -25 19 -13 0 -15 -95 -15 -725z"
    />
<path
      d="M1337 1503 c-12 -11 -8 -1443 3 -1443 7 0 10 248 10 725 0 399 -1
725 -3 725 -2 0 -7 -3 -10 -7z"
    />
<path
      d="M1400 785 c0 -477 3 -725 10 -725 7 0 10 248 10 725 0 477 -3 725
-10 725 -7 0 -10 -248 -10 -725z"
    />
<path
      d="M1480 785 c0 -477 3 -725 10 -725 7 0 10 248 10 725 0 477 -3 725
-10 725 -7 0 -10 -248 -10 -725z"
    />
<path
      d="M1282 1420 c-9 -15 -12 -174 -12 -690 0 -589 2 -670 15 -670 13 0 15
83 15 690 0 380 -1 690 -3 690 -1 0 -8 -9 -15 -20z"
    />
<path
      d="M410 695 l0 -635 30 0 30 0 0 595 0 595 -26 40 c-15 22 -28 40 -30
40 -2 0 -4 -286 -4 -635z"
    />
<path
      d="M1190 1281 c-6 -13 -10 -225 -10 -620 0 -528 2 -601 15 -601 13 0 15
76 15 620 0 341 -2 620 -5 620 -2 0 -9 -9 -15 -19z"
    />
<path
      d="M1126 1185 c-14 -22 -16 -85 -16 -575 0 -543 0 -550 20 -550 20 0 20
7 20 575 0 316 -2 575 -4 575 -2 0 -11 -11 -20 -25z"
    />
<path
      d="M500 632 c0 -502 2 -572 15 -572 22 0 22 1095 0 1124 -13 18 -15 -47
-15 -552z"
    />
<path
      d="M570 575 l0 -515 25 0 25 0 0 481 c0 470 0 482 -21 515 -11 19 -23
34 -25 34 -2 0 -4 -232 -4 -515z"
    />
<path
      d="M997 993 c-12 -11 -8 -933 3 -933 7 0 10 163 10 470 0 259 -1 470 -3
470 -2 0 -7 -3 -10 -7z"
    />
<path
      d="M650 515 l0 -455 35 0 35 0 0 407 0 406 -31 49 c-17 26 -33 48 -35
48 -2 0 -4 -205 -4 -455z"
    />
<path
      d="M937 903 c-12 -11 -8 -843 3 -843 7 0 10 148 10 425 0 234 -1 425 -3
425 -2 0 -7 -3 -10 -7z"
    />
<path
      d="M886 824 c-11 -28 -7 -764 4 -764 6 0 10 137 10 390 0 215 -2 390 -4
390 -2 0 -7 -7 -10 -16z"
    />
<path
      d="M740 446 c0 -251 4 -386 10 -386 14 0 14 757 0 765 -7 4 -10 -125
-10 -379z"
    />
</g>
</svg>
